<mxfile host="app.diagrams.net" modified="2023-05-02T10:48:59.674Z" agent="Mozilla/5.0 (Windows NT 10.0; Win64; x64) AppleWebKit/537.36 (KHTML, like Gecko) Chrome/112.0.0.0 Safari/537.36" etag="PyQJnotpBYwtBkVbWzlg" version="21.1.8">
  <diagram name="Page-1" id="ivi_GzzBbnTKShinMN6c">
    <mxGraphModel dx="1401" dy="1669" grid="1" gridSize="10" guides="1" tooltips="1" connect="1" arrows="1" fold="1" page="1" pageScale="1" pageWidth="850" pageHeight="1100" math="0" shadow="0">
      <root>
        <mxCell id="0" />
        <mxCell id="1" parent="0" />
        <mxCell id="fI0UlLMCyQehsWo7p1q2-103" value="Played" style="rhombus;whiteSpace=wrap;html=1;fillColor=#e1d5e7;strokeColor=#9673a6;" vertex="1" parent="1">
          <mxGeometry x="110" y="-160" width="80" height="80" as="geometry" />
        </mxCell>
        <mxCell id="fI0UlLMCyQehsWo7p1q2-104" value="Tournament" style="rounded=0;whiteSpace=wrap;html=1;fillColor=#f8cecc;strokeColor=#b85450;" vertex="1" parent="1">
          <mxGeometry x="100" y="-30" width="100" height="40" as="geometry" />
        </mxCell>
        <mxCell id="fI0UlLMCyQehsWo7p1q2-105" value="" style="endArrow=none;html=1;rounded=0;exitX=0.5;exitY=0;exitDx=0;exitDy=0;entryX=0.5;entryY=1;entryDx=0;entryDy=0;" edge="1" parent="1" source="fI0UlLMCyQehsWo7p1q2-104" target="fI0UlLMCyQehsWo7p1q2-103">
          <mxGeometry width="50" height="50" relative="1" as="geometry">
            <mxPoint x="100" y="-100" as="sourcePoint" />
            <mxPoint x="150" y="-150" as="targetPoint" />
          </mxGeometry>
        </mxCell>
        <mxCell id="fI0UlLMCyQehsWo7p1q2-106" value="Match" style="rounded=0;whiteSpace=wrap;html=1;fillColor=#f8cecc;strokeColor=#b85450;" vertex="1" parent="1">
          <mxGeometry x="100" y="-260" width="100" height="40" as="geometry" />
        </mxCell>
        <mxCell id="fI0UlLMCyQehsWo7p1q2-107" value="(1,N)" style="text;html=1;strokeColor=none;fillColor=none;align=center;verticalAlign=middle;whiteSpace=wrap;rounded=0;" vertex="1" parent="1">
          <mxGeometry x="160" y="-80" width="60" height="30" as="geometry" />
        </mxCell>
        <mxCell id="fI0UlLMCyQehsWo7p1q2-108" value="(1,1)" style="text;html=1;strokeColor=none;fillColor=none;align=center;verticalAlign=middle;whiteSpace=wrap;rounded=0;" vertex="1" parent="1">
          <mxGeometry x="150" y="-200" width="60" height="30" as="geometry" />
        </mxCell>
        <mxCell id="fI0UlLMCyQehsWo7p1q2-109" value="Refereeing" style="rhombus;whiteSpace=wrap;html=1;fillColor=#e1d5e7;strokeColor=#9673a6;" vertex="1" parent="1">
          <mxGeometry x="-80" y="-280" width="80" height="80" as="geometry" />
        </mxCell>
        <mxCell id="fI0UlLMCyQehsWo7p1q2-110" value="" style="endArrow=none;html=1;rounded=0;exitX=1;exitY=0.5;exitDx=0;exitDy=0;" edge="1" parent="1" source="fI0UlLMCyQehsWo7p1q2-109">
          <mxGeometry width="50" height="50" relative="1" as="geometry">
            <mxPoint x="50" y="-190" as="sourcePoint" />
            <mxPoint x="100" y="-240" as="targetPoint" />
          </mxGeometry>
        </mxCell>
        <mxCell id="fI0UlLMCyQehsWo7p1q2-111" value="Referee" style="rounded=0;whiteSpace=wrap;html=1;fillColor=#f8cecc;strokeColor=#b85450;" vertex="1" parent="1">
          <mxGeometry x="-90" y="-140" width="100" height="40" as="geometry" />
        </mxCell>
        <mxCell id="fI0UlLMCyQehsWo7p1q2-112" value="(1,N)" style="text;html=1;strokeColor=none;fillColor=none;align=center;verticalAlign=middle;whiteSpace=wrap;rounded=0;" vertex="1" parent="1">
          <mxGeometry x="10" y="-240" width="60" height="30" as="geometry" />
        </mxCell>
        <mxCell id="fI0UlLMCyQehsWo7p1q2-113" value="(1,N)" style="text;html=1;align=center;verticalAlign=middle;resizable=0;points=[];autosize=1;strokeColor=none;fillColor=none;" vertex="1" parent="1">
          <mxGeometry x="-35" y="-190" width="50" height="30" as="geometry" />
        </mxCell>
        <mxCell id="fI0UlLMCyQehsWo7p1q2-114" value="Playing" style="rhombus;whiteSpace=wrap;html=1;fillColor=#e1d5e7;strokeColor=#9673a6;" vertex="1" parent="1">
          <mxGeometry x="320" y="-280" width="80" height="80" as="geometry" />
        </mxCell>
        <mxCell id="fI0UlLMCyQehsWo7p1q2-115" value="" style="endArrow=none;html=1;rounded=0;exitX=1;exitY=0.5;exitDx=0;exitDy=0;entryX=0;entryY=0.5;entryDx=0;entryDy=0;" edge="1" parent="1" source="fI0UlLMCyQehsWo7p1q2-106" target="fI0UlLMCyQehsWo7p1q2-114">
          <mxGeometry width="50" height="50" relative="1" as="geometry">
            <mxPoint x="220" y="-190" as="sourcePoint" />
            <mxPoint x="270" y="-240" as="targetPoint" />
          </mxGeometry>
        </mxCell>
        <mxCell id="fI0UlLMCyQehsWo7p1q2-116" value="Players" style="rounded=0;whiteSpace=wrap;html=1;fillColor=#f8cecc;strokeColor=#b85450;" vertex="1" parent="1">
          <mxGeometry x="510" y="-260" width="100" height="40" as="geometry" />
        </mxCell>
        <mxCell id="fI0UlLMCyQehsWo7p1q2-117" value="(1,N)" style="text;html=1;strokeColor=none;fillColor=none;align=center;verticalAlign=middle;whiteSpace=wrap;rounded=0;" vertex="1" parent="1">
          <mxGeometry x="430" y="-230" width="60" height="30" as="geometry" />
        </mxCell>
        <mxCell id="fI0UlLMCyQehsWo7p1q2-118" value="(1,N)" style="text;html=1;strokeColor=none;fillColor=none;align=center;verticalAlign=middle;whiteSpace=wrap;rounded=0;" vertex="1" parent="1">
          <mxGeometry x="230" y="-240" width="60" height="30" as="geometry" />
        </mxCell>
        <mxCell id="fI0UlLMCyQehsWo7p1q2-119" value="Participating" style="rhombus;whiteSpace=wrap;html=1;fillColor=#e1d5e7;strokeColor=#9673a6;" vertex="1" parent="1">
          <mxGeometry x="320" y="-50" width="80" height="80" as="geometry" />
        </mxCell>
        <mxCell id="fI0UlLMCyQehsWo7p1q2-120" value="" style="endArrow=none;html=1;rounded=0;exitX=1;exitY=0.5;exitDx=0;exitDy=0;" edge="1" parent="1" source="fI0UlLMCyQehsWo7p1q2-104">
          <mxGeometry width="50" height="50" relative="1" as="geometry">
            <mxPoint x="270" y="40" as="sourcePoint" />
            <mxPoint x="320" y="-10" as="targetPoint" />
          </mxGeometry>
        </mxCell>
        <mxCell id="fI0UlLMCyQehsWo7p1q2-121" value="(1,N)" style="text;html=1;strokeColor=none;fillColor=none;align=center;verticalAlign=middle;whiteSpace=wrap;rounded=0;" vertex="1" parent="1">
          <mxGeometry x="230" y="-10" width="60" height="30" as="geometry" />
        </mxCell>
        <mxCell id="fI0UlLMCyQehsWo7p1q2-122" value="&lt;font style=&quot;font-size: 9px;&quot;&gt;&lt;u&gt;Personal ID&lt;/u&gt;&lt;/font&gt;" style="ellipse;whiteSpace=wrap;html=1;" vertex="1" parent="1">
          <mxGeometry x="-70" y="-25" width="60" height="30" as="geometry" />
        </mxCell>
        <mxCell id="fI0UlLMCyQehsWo7p1q2-123" value="" style="endArrow=none;html=1;rounded=0;entryX=0.5;entryY=0;entryDx=0;entryDy=0;" edge="1" parent="1" target="fI0UlLMCyQehsWo7p1q2-178">
          <mxGeometry width="50" height="50" relative="1" as="geometry">
            <mxPoint x="-40" y="-100" as="sourcePoint" />
            <mxPoint x="-40.19" y="-80" as="targetPoint" />
          </mxGeometry>
        </mxCell>
        <mxCell id="fI0UlLMCyQehsWo7p1q2-124" value="&lt;font size=&quot;1&quot;&gt;&lt;u&gt;Name&lt;/u&gt;&lt;/font&gt;" style="ellipse;whiteSpace=wrap;html=1;" vertex="1" parent="1">
          <mxGeometry x="120" y="125" width="60" height="30" as="geometry" />
        </mxCell>
        <mxCell id="fI0UlLMCyQehsWo7p1q2-125" value="&lt;font size=&quot;1&quot;&gt;&lt;span style=&quot;font-size: 9px;&quot;&gt;Starting date&lt;/span&gt;&lt;/font&gt;" style="ellipse;whiteSpace=wrap;html=1;" vertex="1" parent="1">
          <mxGeometry x="10" y="125" width="60" height="30" as="geometry" />
        </mxCell>
        <mxCell id="fI0UlLMCyQehsWo7p1q2-126" value="" style="endArrow=none;html=1;rounded=0;entryX=0.5;entryY=1;entryDx=0;entryDy=0;exitX=0.5;exitY=0;exitDx=0;exitDy=0;" edge="1" parent="1" source="fI0UlLMCyQehsWo7p1q2-179" target="fI0UlLMCyQehsWo7p1q2-104">
          <mxGeometry width="50" height="50" relative="1" as="geometry">
            <mxPoint x="100" y="50" as="sourcePoint" />
            <mxPoint x="150" as="targetPoint" />
          </mxGeometry>
        </mxCell>
        <mxCell id="fI0UlLMCyQehsWo7p1q2-127" value="" style="endArrow=none;html=1;rounded=0;entryX=0.5;entryY=1;entryDx=0;entryDy=0;exitX=0.5;exitY=0;exitDx=0;exitDy=0;" edge="1" parent="1" source="fI0UlLMCyQehsWo7p1q2-180" target="fI0UlLMCyQehsWo7p1q2-104">
          <mxGeometry width="50" height="50" relative="1" as="geometry">
            <mxPoint x="110" y="60" as="sourcePoint" />
            <mxPoint x="160" y="20" as="targetPoint" />
            <Array as="points">
              <mxPoint x="40" y="60" />
              <mxPoint x="150" y="60" />
            </Array>
          </mxGeometry>
        </mxCell>
        <mxCell id="fI0UlLMCyQehsWo7p1q2-146" value="" style="endArrow=none;html=1;rounded=0;" edge="1" parent="1">
          <mxGeometry width="50" height="50" relative="1" as="geometry">
            <mxPoint x="400" y="-10" as="sourcePoint" />
            <mxPoint x="560" y="-10" as="targetPoint" />
          </mxGeometry>
        </mxCell>
        <mxCell id="fI0UlLMCyQehsWo7p1q2-147" value="(1,1)" style="text;html=1;strokeColor=none;fillColor=none;align=center;verticalAlign=middle;whiteSpace=wrap;rounded=0;" vertex="1" parent="1">
          <mxGeometry x="420" y="-10" width="60" height="30" as="geometry" />
        </mxCell>
        <mxCell id="fI0UlLMCyQehsWo7p1q2-178" value="&lt;font style=&quot;font-size: 9px;&quot;&gt;&lt;u&gt;Personal ID&lt;/u&gt;&lt;/font&gt;" style="ellipse;whiteSpace=wrap;html=1;fillColor=#fff2cc;strokeColor=#d6b656;" vertex="1" parent="1">
          <mxGeometry x="-70" y="-25" width="60" height="30" as="geometry" />
        </mxCell>
        <mxCell id="fI0UlLMCyQehsWo7p1q2-179" value="&lt;font size=&quot;1&quot;&gt;&lt;u&gt;Tournament name&lt;/u&gt;&lt;/font&gt;" style="ellipse;whiteSpace=wrap;html=1;fillColor=#fff2cc;strokeColor=#d6b656;" vertex="1" parent="1">
          <mxGeometry x="120" y="125" width="60" height="30" as="geometry" />
        </mxCell>
        <mxCell id="fI0UlLMCyQehsWo7p1q2-180" value="&lt;font size=&quot;1&quot;&gt;&lt;span style=&quot;font-size: 9px;&quot;&gt;Starting date&lt;/span&gt;&lt;/font&gt;" style="ellipse;whiteSpace=wrap;html=1;fillColor=#fff2cc;strokeColor=#d6b656;" vertex="1" parent="1">
          <mxGeometry x="10" y="125" width="60" height="30" as="geometry" />
        </mxCell>
        <mxCell id="fI0UlLMCyQehsWo7p1q2-181" value="" style="endArrow=none;html=1;rounded=0;entryX=0;entryY=0.5;entryDx=0;entryDy=0;" edge="1" parent="1" target="fI0UlLMCyQehsWo7p1q2-116">
          <mxGeometry width="50" height="50" relative="1" as="geometry">
            <mxPoint x="400" y="-240" as="sourcePoint" />
            <mxPoint x="450" y="-290" as="targetPoint" />
          </mxGeometry>
        </mxCell>
        <mxCell id="fI0UlLMCyQehsWo7p1q2-182" value="" style="endArrow=none;html=1;rounded=0;entryX=0.5;entryY=1;entryDx=0;entryDy=0;" edge="1" parent="1" target="fI0UlLMCyQehsWo7p1q2-109">
          <mxGeometry width="50" height="50" relative="1" as="geometry">
            <mxPoint x="-40" y="-140" as="sourcePoint" />
            <mxPoint x="10" y="-190" as="targetPoint" />
          </mxGeometry>
        </mxCell>
        <mxCell id="fI0UlLMCyQehsWo7p1q2-183" value="" style="endArrow=none;html=1;rounded=0;entryX=0.5;entryY=1;entryDx=0;entryDy=0;" edge="1" parent="1" target="fI0UlLMCyQehsWo7p1q2-106">
          <mxGeometry width="50" height="50" relative="1" as="geometry">
            <mxPoint x="150" y="-160" as="sourcePoint" />
            <mxPoint x="200" y="-210" as="targetPoint" />
          </mxGeometry>
        </mxCell>
        <mxCell id="fI0UlLMCyQehsWo7p1q2-184" value="" style="endArrow=none;html=1;rounded=0;entryX=0.5;entryY=1;entryDx=0;entryDy=0;" edge="1" parent="1" target="fI0UlLMCyQehsWo7p1q2-116">
          <mxGeometry width="50" height="50" relative="1" as="geometry">
            <mxPoint x="560" y="-10" as="sourcePoint" />
            <mxPoint x="550" y="-190" as="targetPoint" />
          </mxGeometry>
        </mxCell>
        <mxCell id="fI0UlLMCyQehsWo7p1q2-185" value="&lt;font size=&quot;1&quot;&gt;&lt;span style=&quot;font-size: 9px;&quot;&gt;Name&lt;/span&gt;&lt;/font&gt;" style="ellipse;whiteSpace=wrap;html=1;fillColor=#fff2cc;strokeColor=#d6b656;" vertex="1" parent="1">
          <mxGeometry x="-220" y="-25" width="60" height="30" as="geometry" />
        </mxCell>
        <mxCell id="fI0UlLMCyQehsWo7p1q2-186" value="&lt;font size=&quot;1&quot;&gt;&lt;span style=&quot;font-size: 9px;&quot;&gt;Last name&lt;/span&gt;&lt;/font&gt;" style="ellipse;whiteSpace=wrap;html=1;fillColor=#fff2cc;strokeColor=#d6b656;" vertex="1" parent="1">
          <mxGeometry x="-150" y="-25" width="60" height="30" as="geometry" />
        </mxCell>
        <mxCell id="fI0UlLMCyQehsWo7p1q2-187" value="" style="endArrow=none;html=1;rounded=0;" edge="1" parent="1">
          <mxGeometry width="50" height="50" relative="1" as="geometry">
            <mxPoint x="-120" y="-25" as="sourcePoint" />
            <mxPoint x="-40" y="-70" as="targetPoint" />
            <Array as="points">
              <mxPoint x="-120" y="-70" />
            </Array>
          </mxGeometry>
        </mxCell>
        <mxCell id="fI0UlLMCyQehsWo7p1q2-188" value="" style="endArrow=none;html=1;rounded=0;exitX=0.5;exitY=0;exitDx=0;exitDy=0;" edge="1" parent="1" source="fI0UlLMCyQehsWo7p1q2-185">
          <mxGeometry width="50" height="50" relative="1" as="geometry">
            <mxPoint x="-180" y="-60" as="sourcePoint" />
            <mxPoint x="-40" y="-70" as="targetPoint" />
            <Array as="points">
              <mxPoint x="-190" y="-70" />
            </Array>
          </mxGeometry>
        </mxCell>
        <mxCell id="fI0UlLMCyQehsWo7p1q2-193" value="&lt;font style=&quot;font-size: 9px;&quot;&gt;&lt;u&gt;Match ID&lt;/u&gt;&lt;/font&gt;" style="ellipse;whiteSpace=wrap;html=1;" vertex="1" parent="1">
          <mxGeometry x="-10" y="-395" width="60" height="30" as="geometry" />
        </mxCell>
        <mxCell id="fI0UlLMCyQehsWo7p1q2-194" value="" style="endArrow=none;html=1;rounded=0;entryX=0.5;entryY=1;entryDx=0;entryDy=0;exitX=0.5;exitY=0;exitDx=0;exitDy=0;" edge="1" target="fI0UlLMCyQehsWo7p1q2-201" parent="1">
          <mxGeometry width="50" height="50" relative="1" as="geometry">
            <mxPoint x="150" y="-260" as="sourcePoint" />
            <mxPoint x="307.5" y="-365" as="targetPoint" />
            <Array as="points">
              <mxPoint x="150" y="-320" />
              <mxPoint x="290" y="-320" />
            </Array>
          </mxGeometry>
        </mxCell>
        <mxCell id="fI0UlLMCyQehsWo7p1q2-195" value="&lt;font size=&quot;1&quot;&gt;&lt;span style=&quot;font-size: 9px;&quot;&gt;Surface&lt;/span&gt;&lt;/font&gt;" style="ellipse;whiteSpace=wrap;html=1;fillColor=#fff2cc;strokeColor=#d6b656;" vertex="1" parent="1">
          <mxGeometry x="80" y="-395" width="60" height="30" as="geometry" />
        </mxCell>
        <mxCell id="fI0UlLMCyQehsWo7p1q2-196" value="&lt;font style=&quot;font-size: 9px;&quot;&gt;Stage&lt;/font&gt;" style="ellipse;whiteSpace=wrap;html=1;fillColor=#fff2cc;strokeColor=#d6b656;" vertex="1" parent="1">
          <mxGeometry x="170" y="-395" width="60" height="30" as="geometry" />
        </mxCell>
        <mxCell id="fI0UlLMCyQehsWo7p1q2-197" value="&lt;font style=&quot;font-size: 9px;&quot;&gt;&lt;u&gt;Match ID&lt;/u&gt;&lt;/font&gt;" style="ellipse;whiteSpace=wrap;html=1;fillColor=#fff2cc;strokeColor=#d6b656;" vertex="1" parent="1">
          <mxGeometry x="-10" y="-395" width="60" height="30" as="geometry" />
        </mxCell>
        <mxCell id="fI0UlLMCyQehsWo7p1q2-198" value="" style="endArrow=none;html=1;rounded=0;entryX=0.5;entryY=1;entryDx=0;entryDy=0;exitX=0.5;exitY=0;exitDx=0;exitDy=0;" edge="1" target="fI0UlLMCyQehsWo7p1q2-193" parent="1">
          <mxGeometry width="50" height="50" relative="1" as="geometry">
            <mxPoint x="150" y="-260" as="sourcePoint" />
            <mxPoint x="20" y="-365" as="targetPoint" />
            <Array as="points">
              <mxPoint x="150" y="-320" />
              <mxPoint x="20" y="-320" />
            </Array>
          </mxGeometry>
        </mxCell>
        <mxCell id="fI0UlLMCyQehsWo7p1q2-199" value="" style="endArrow=none;html=1;rounded=0;" edge="1" parent="1">
          <mxGeometry width="50" height="50" relative="1" as="geometry">
            <mxPoint x="150" y="-320" as="sourcePoint" />
            <mxPoint x="110" y="-365" as="targetPoint" />
            <Array as="points">
              <mxPoint x="110" y="-320" />
            </Array>
          </mxGeometry>
        </mxCell>
        <mxCell id="fI0UlLMCyQehsWo7p1q2-200" value="" style="endArrow=none;html=1;rounded=0;entryX=0.5;entryY=1;entryDx=0;entryDy=0;exitX=0.5;exitY=0;exitDx=0;exitDy=0;" edge="1" target="fI0UlLMCyQehsWo7p1q2-196" parent="1">
          <mxGeometry width="50" height="50" relative="1" as="geometry">
            <mxPoint x="150" y="-260" as="sourcePoint" />
            <mxPoint x="200" y="-365" as="targetPoint" />
            <Array as="points">
              <mxPoint x="150" y="-320" />
              <mxPoint x="200" y="-320" />
            </Array>
          </mxGeometry>
        </mxCell>
        <mxCell id="fI0UlLMCyQehsWo7p1q2-201" value="&lt;font size=&quot;1&quot;&gt;&lt;span style=&quot;font-size: 9px;&quot;&gt;Time Played&lt;/span&gt;&lt;/font&gt;" style="ellipse;whiteSpace=wrap;html=1;fillColor=#fff2cc;strokeColor=#d6b656;" vertex="1" parent="1">
          <mxGeometry x="260" y="-395" width="60" height="30" as="geometry" />
        </mxCell>
        <mxCell id="fI0UlLMCyQehsWo7p1q2-202" value="&lt;font style=&quot;font-size: 9px;&quot;&gt;&lt;u&gt;Personal ID&lt;/u&gt;&lt;/font&gt;" style="ellipse;whiteSpace=wrap;html=1;" vertex="1" parent="1">
          <mxGeometry x="830" y="-170" width="60" height="30" as="geometry" />
        </mxCell>
        <mxCell id="fI0UlLMCyQehsWo7p1q2-203" value="&lt;font size=&quot;1&quot;&gt;&lt;span style=&quot;font-size: 9px;&quot;&gt;As serves&lt;/span&gt;&lt;/font&gt;" style="ellipse;whiteSpace=wrap;html=1;" vertex="1" parent="1">
          <mxGeometry x="830" y="-210" width="60" height="30" as="geometry" />
        </mxCell>
        <mxCell id="fI0UlLMCyQehsWo7p1q2-204" value="&lt;font size=&quot;1&quot;&gt;&lt;span style=&quot;font-size: 9px;&quot;&gt;Resault&lt;/span&gt;&lt;/font&gt;" style="ellipse;whiteSpace=wrap;html=1;" vertex="1" parent="1">
          <mxGeometry x="830" y="-255" width="60" height="30" as="geometry" />
        </mxCell>
        <mxCell id="fI0UlLMCyQehsWo7p1q2-205" value="" style="endArrow=none;html=1;rounded=0;entryX=0;entryY=0.5;entryDx=0;entryDy=0;exitX=1;exitY=0.5;exitDx=0;exitDy=0;" edge="1" target="fI0UlLMCyQehsWo7p1q2-204" parent="1">
          <mxGeometry width="50" height="50" relative="1" as="geometry">
            <mxPoint x="610" y="-240" as="sourcePoint" />
            <mxPoint x="460" y="-260" as="targetPoint" />
          </mxGeometry>
        </mxCell>
        <mxCell id="fI0UlLMCyQehsWo7p1q2-206" value="" style="endArrow=none;html=1;rounded=0;entryX=0;entryY=0.5;entryDx=0;entryDy=0;exitX=1;exitY=0.5;exitDx=0;exitDy=0;" edge="1" target="fI0UlLMCyQehsWo7p1q2-203" parent="1">
          <mxGeometry width="50" height="50" relative="1" as="geometry">
            <mxPoint x="610" y="-240" as="sourcePoint" />
            <mxPoint x="460" y="-260" as="targetPoint" />
            <Array as="points">
              <mxPoint x="710" y="-240" />
              <mxPoint x="710" y="-195" />
            </Array>
          </mxGeometry>
        </mxCell>
        <mxCell id="fI0UlLMCyQehsWo7p1q2-207" value="" style="endArrow=none;html=1;rounded=0;entryX=0.017;entryY=0.378;entryDx=0;entryDy=0;entryPerimeter=0;exitX=1;exitY=0.5;exitDx=0;exitDy=0;" edge="1" target="fI0UlLMCyQehsWo7p1q2-202" parent="1">
          <mxGeometry width="50" height="50" relative="1" as="geometry">
            <mxPoint x="610" y="-240" as="sourcePoint" />
            <mxPoint x="590" y="-450" as="targetPoint" />
            <Array as="points">
              <mxPoint x="700" y="-240" />
              <mxPoint x="700" y="-160" />
            </Array>
          </mxGeometry>
        </mxCell>
        <mxCell id="fI0UlLMCyQehsWo7p1q2-208" value="" style="endArrow=none;html=1;rounded=0;entryX=0;entryY=0.5;entryDx=0;entryDy=0;exitX=1;exitY=0.5;exitDx=0;exitDy=0;" edge="1" target="fI0UlLMCyQehsWo7p1q2-211" parent="1">
          <mxGeometry width="50" height="50" relative="1" as="geometry">
            <mxPoint x="610" y="-240" as="sourcePoint" />
            <mxPoint x="830.0000000000114" y="-75" as="targetPoint" />
            <Array as="points">
              <mxPoint x="680" y="-240" />
              <mxPoint x="680" y="-115" />
            </Array>
          </mxGeometry>
        </mxCell>
        <mxCell id="fI0UlLMCyQehsWo7p1q2-209" value="" style="endArrow=none;html=1;rounded=0;entryX=0;entryY=0.5;entryDx=0;entryDy=0;exitX=1;exitY=0.5;exitDx=0;exitDy=0;" edge="1" target="fI0UlLMCyQehsWo7p1q2-219" parent="1">
          <mxGeometry width="50" height="50" relative="1" as="geometry">
            <mxPoint x="610" y="-240" as="sourcePoint" />
            <mxPoint x="760" y="-30" as="targetPoint" />
            <Array as="points">
              <mxPoint x="670" y="-240" />
              <mxPoint x="670" y="-75" />
            </Array>
          </mxGeometry>
        </mxCell>
        <mxCell id="fI0UlLMCyQehsWo7p1q2-210" value="" style="endArrow=none;html=1;rounded=0;entryX=0;entryY=0.5;entryDx=0;entryDy=0;exitX=1;exitY=0.5;exitDx=0;exitDy=0;" edge="1" target="fI0UlLMCyQehsWo7p1q2-220" parent="1">
          <mxGeometry width="50" height="50" relative="1" as="geometry">
            <mxPoint x="610" y="-240" as="sourcePoint" />
            <mxPoint x="760" y="20" as="targetPoint" />
            <Array as="points">
              <mxPoint x="660" y="-240" />
              <mxPoint x="660" y="-35" />
            </Array>
          </mxGeometry>
        </mxCell>
        <mxCell id="fI0UlLMCyQehsWo7p1q2-211" value="&lt;font size=&quot;1&quot;&gt;&lt;span style=&quot;font-size: 9px;&quot;&gt;Points&lt;/span&gt;&lt;/font&gt;" style="ellipse;whiteSpace=wrap;html=1;fillColor=#fff2cc;strokeColor=#d6b656;" vertex="1" parent="1">
          <mxGeometry x="830" y="-130" width="60" height="30" as="geometry" />
        </mxCell>
        <mxCell id="fI0UlLMCyQehsWo7p1q2-212" value="&lt;font style=&quot;font-size: 9px;&quot;&gt;&lt;u&gt;Player ID&lt;/u&gt;&lt;/font&gt;" style="ellipse;whiteSpace=wrap;html=1;fillColor=#fff2cc;strokeColor=#d6b656;" vertex="1" parent="1">
          <mxGeometry x="830" y="-170" width="60" height="30" as="geometry" />
        </mxCell>
        <mxCell id="fI0UlLMCyQehsWo7p1q2-213" value="&lt;font size=&quot;1&quot;&gt;&lt;span style=&quot;font-size: 9px;&quot;&gt;As serves&lt;/span&gt;&lt;/font&gt;" style="ellipse;whiteSpace=wrap;html=1;fillColor=#fff2cc;strokeColor=#d6b656;" vertex="1" parent="1">
          <mxGeometry x="830" y="-210" width="60" height="30" as="geometry" />
        </mxCell>
        <mxCell id="fI0UlLMCyQehsWo7p1q2-214" value="&lt;font size=&quot;1&quot;&gt;&lt;span style=&quot;font-size: 9px;&quot;&gt;Result&lt;/span&gt;&lt;/font&gt;" style="ellipse;whiteSpace=wrap;html=1;fillColor=#fff2cc;strokeColor=#d6b656;" vertex="1" parent="1">
          <mxGeometry x="830" y="-255" width="60" height="30" as="geometry" />
        </mxCell>
        <mxCell id="fI0UlLMCyQehsWo7p1q2-215" value="&lt;font size=&quot;1&quot;&gt;&lt;span style=&quot;font-size: 9px;&quot;&gt;Surname&lt;/span&gt;&lt;/font&gt;" style="ellipse;whiteSpace=wrap;html=1;fillColor=#fff2cc;strokeColor=#d6b656;" vertex="1" parent="1">
          <mxGeometry x="830" y="-340" width="60" height="30" as="geometry" />
        </mxCell>
        <mxCell id="fI0UlLMCyQehsWo7p1q2-216" value="&lt;font size=&quot;1&quot;&gt;&lt;span style=&quot;font-size: 9px;&quot;&gt;Name&lt;/span&gt;&lt;/font&gt;" style="ellipse;whiteSpace=wrap;html=1;fillColor=#fff2cc;strokeColor=#d6b656;" vertex="1" parent="1">
          <mxGeometry x="830" y="-300" width="60" height="30" as="geometry" />
        </mxCell>
        <mxCell id="fI0UlLMCyQehsWo7p1q2-217" value="" style="endArrow=none;html=1;rounded=0;entryX=0;entryY=0.5;entryDx=0;entryDy=0;" edge="1" target="fI0UlLMCyQehsWo7p1q2-215" parent="1">
          <mxGeometry width="50" height="50" relative="1" as="geometry">
            <mxPoint x="720" y="-240" as="sourcePoint" />
            <mxPoint x="790" y="-300" as="targetPoint" />
            <Array as="points">
              <mxPoint x="720" y="-280" />
              <mxPoint x="750" y="-280" />
              <mxPoint x="750" y="-325" />
            </Array>
          </mxGeometry>
        </mxCell>
        <mxCell id="fI0UlLMCyQehsWo7p1q2-218" value="" style="endArrow=none;html=1;rounded=0;entryX=0;entryY=0.5;entryDx=0;entryDy=0;exitX=1;exitY=0.5;exitDx=0;exitDy=0;" edge="1" target="fI0UlLMCyQehsWo7p1q2-216" parent="1">
          <mxGeometry width="50" height="50" relative="1" as="geometry">
            <mxPoint x="610" y="-240" as="sourcePoint" />
            <mxPoint x="820" y="-300" as="targetPoint" />
            <Array as="points">
              <mxPoint x="780" y="-240" />
              <mxPoint x="780" y="-280" />
            </Array>
          </mxGeometry>
        </mxCell>
        <mxCell id="fI0UlLMCyQehsWo7p1q2-219" value="&lt;font size=&quot;1&quot;&gt;&lt;span style=&quot;font-size: 9px;&quot;&gt;Forced errors&lt;/span&gt;&lt;/font&gt;" style="ellipse;whiteSpace=wrap;html=1;fillColor=#fff2cc;strokeColor=#d6b656;" vertex="1" parent="1">
          <mxGeometry x="830" y="-90" width="60" height="30" as="geometry" />
        </mxCell>
        <mxCell id="fI0UlLMCyQehsWo7p1q2-220" value="&lt;font size=&quot;1&quot;&gt;&lt;span style=&quot;font-size: 9px;&quot;&gt;Unforced errors&lt;/span&gt;&lt;/font&gt;" style="ellipse;whiteSpace=wrap;html=1;fillColor=#fff2cc;strokeColor=#d6b656;" vertex="1" parent="1">
          <mxGeometry x="830" y="-50" width="60" height="30" as="geometry" />
        </mxCell>
        <mxCell id="fI0UlLMCyQehsWo7p1q2-221" value="&lt;font size=&quot;1&quot;&gt;&lt;span style=&quot;font-size: 9px;&quot;&gt;Successful serves&lt;br&gt;&lt;/span&gt;&lt;/font&gt;" style="ellipse;whiteSpace=wrap;html=1;fillColor=#fff2cc;strokeColor=#d6b656;" vertex="1" parent="1">
          <mxGeometry x="830" y="-10" width="60" height="30" as="geometry" />
        </mxCell>
        <mxCell id="fI0UlLMCyQehsWo7p1q2-222" value="&lt;font size=&quot;1&quot;&gt;&lt;span style=&quot;font-size: 9px;&quot;&gt;Unsuccessful serves&lt;br&gt;&lt;/span&gt;&lt;/font&gt;" style="ellipse;whiteSpace=wrap;html=1;fillColor=#fff2cc;strokeColor=#d6b656;" vertex="1" parent="1">
          <mxGeometry x="830" y="30" width="60" height="30" as="geometry" />
        </mxCell>
        <mxCell id="fI0UlLMCyQehsWo7p1q2-223" value="" style="endArrow=none;html=1;rounded=0;exitX=0;exitY=0.5;exitDx=0;exitDy=0;" edge="1" source="fI0UlLMCyQehsWo7p1q2-221" parent="1">
          <mxGeometry width="50" height="50" relative="1" as="geometry">
            <mxPoint x="590" y="-190" as="sourcePoint" />
            <mxPoint x="640" y="-240" as="targetPoint" />
            <Array as="points">
              <mxPoint x="640" y="5" />
            </Array>
          </mxGeometry>
        </mxCell>
        <mxCell id="fI0UlLMCyQehsWo7p1q2-224" value="" style="endArrow=none;html=1;rounded=0;entryX=0;entryY=0.5;entryDx=0;entryDy=0;" edge="1" target="fI0UlLMCyQehsWo7p1q2-222" parent="1">
          <mxGeometry width="50" height="50" relative="1" as="geometry">
            <mxPoint x="630" y="-240" as="sourcePoint" />
            <mxPoint x="780" y="50" as="targetPoint" />
            <Array as="points">
              <mxPoint x="630" y="45" />
            </Array>
          </mxGeometry>
        </mxCell>
      </root>
    </mxGraphModel>
  </diagram>
</mxfile>
